<svg xmlns="http://www.w3.org/2000/svg" xmlns:xlink="http://www.w3.org/1999/xlink" viewBox="0 0 467.02 481.38"><defs><style>.cls-1,.cls-5,.cls-6,.cls-7{fill:none;}.cls-2{clip-path:url(#clip-path);}.cls-3,.cls-4{font-size:20px;}.cls-11,.cls-3,.cls-4{fill:#fff;}.cls-3{font-family:RobotoMono-Regular, Roboto Mono;}.cls-4{font-family:RobotoMono-Italic, Roboto Mono;font-style:italic;}.cls-5,.cls-6,.cls-7{stroke:#fff;}.cls-5{stroke-linecap:round;stroke-linejoin:round;}.cls-5,.cls-7{stroke-width:3px;}.cls-8{fill:#e2848c;}.cls-9{opacity:0.5;}.cls-10{clip-path:url(#clip-path-4);}</style><clipPath id="clip-path" transform="translate(-10.44)"><rect class="cls-1" width="498.44" height="483.95"/></clipPath><clipPath id="clip-path-4" transform="translate(-10.44)"><rect class="cls-1" x="200.32" y="377.14" width="91.13" height="65.27"/></clipPath></defs><title>Seite 2</title><g id="Layer_2" data-name="Layer 2"><g id="Layer_1-2" data-name="Layer 1"><g class="cls-2"><text class="cls-3" transform="translate(10.8 187.51)">Stadt</text><text class="cls-4" transform="translate(9.32 32.03)">Raum 01</text><text class="cls-3" transform="translate(10.94 322.78)">Natur</text><text class="cls-3" transform="translate(0.52 475.96)">Freizeit</text><text class="cls-3" transform="translate(191.86 187.51)">Bürger</text><text class="cls-3" transform="translate(191.86 323.38)">Kultur</text><text class="cls-3" transform="translate(179.86 475.96)">Netzwerk</text><text class="cls-3" transform="translate(365 187.51)">Bildung</text><text class="cls-3" transform="translate(353 323.38)">Tourismus</text><text class="cls-3" transform="translate(347 475.96)">Innovation</text><polygon class="cls-5" points="197.28 114.6 229.18 100 256.8 112.26 204.87 147.09 197.28 114.6"/><polygon class="cls-5" points="389.04 102.26 427.26 99.99 407.02 142.94 389.73 135.44 390.18 124.08 404.29 122.72 389.04 102.26"/><polygon class="cls-5" points="22.46 278.03 59.05 279.61 38.75 238.17 22.46 278.03"/><polygon class="cls-5" points="195.36 261.36 253.42 240.57 259.06 285.38 195.36 261.36"/><polygon class="cls-5" points="437.57 248.28 426.77 268.56 397.17 281.29 376.51 243.56 437.57 248.28"/><polygon class="cls-5" points="22.86 110.24 9.93 149.57 42.77 124.45 71.93 126.22 63.31 93.36 42.14 121.78 22.86 110.24"/><g class="cls-2"><rect class="cls-6" x="0.5" y="0.5" width="447.84" height="46"/><path class="cls-7" d="M426.84,32.58a10.73,10.73,0,1,0-10.72-10.72A10.72,10.72,0,0,0,426.84,32.58Z" transform="translate(-10.44)"/></g><line class="cls-5" x1="425.17" y1="27.63" x2="435.68" y2="34.08"/><line class="cls-6" x1="96.67" y1="11.07" x2="96.67" y2="35.2"/><polygon class="cls-5" points="425.25 374.37 436.05 401.24 404.53 444.06 402.54 417.75 386.64 396.2 425.25 374.37"/><polygon class="cls-5" points="10.82 385.86 50.07 439.91 79.51 420.73 51.3 387.61 10.82 385.86"/><polygon class="cls-8" points="200.38 403.27 219.77 439.91 270.5 404.66 217.78 385.64 200.38 403.27"/><polygon class="cls-5" points="200.38 403.27 219.77 439.91 270.5 404.66 217.78 385.64 200.38 403.27"/><g class="cls-2"><g class="cls-9"><g class="cls-10"><polygon class="cls-11" points="200.38 403.27 219.77 439.91 270.5 404.66 217.78 385.64 200.38 403.27"/><polygon class="cls-5" points="200.38 403.27 219.77 439.91 270.5 404.66 217.78 385.64 200.38 403.27"/></g></g></g></g></g></g></svg>