<svg xmlns="http://www.w3.org/2000/svg" xmlns:xlink="http://www.w3.org/1999/xlink" viewBox="0 0 95.3 157.07"><defs><style>.cls-1,.cls-3{fill:none;}.cls-2{fill:#e3838c;}.cls-3{stroke:#fff;stroke-miterlimit:10;stroke-width:0.97px;}.cls-4{clip-path:url(#clip-path);}.cls-5{fill:#f9f9f9;}</style><clipPath id="clip-path" transform="translate(-1.41 -1.38)"><rect class="cls-1" width="96.83" height="159.81"/></clipPath></defs><title>geralogo2</title><g id="Layer_2" data-name="Layer 2"><g id="Layer_1-2" data-name="Layer 1"><polygon class="cls-2" points="70.77 58.24 27.98 89.88 17.45 70.02 11.54 57.06 25.24 41.18 70.77 58.24"/><polygon class="cls-3" points="70.77 58.24 27.98 89.88 17.45 70.02 11.54 57.06 25.24 41.18 70.77 58.24"/><g class="cls-4"><path class="cls-5" d="M29.39,92l-.17,0a.75.75,0,0,1-.51-.39L18.18,71.76l0,0-5.91-13a.76.76,0,0,1,.12-.82L26.06,42.06a.78.78,0,0,1,.85-.22L72.45,58.9a.77.77,0,0,1,.49.61.79.79,0,0,1-.3.73L29.85,91.88a.79.79,0,0,1-.46.15m-9.84-21,10.1,19L70.58,59.84,26.88,43.47l-13,15.1Z" transform="translate(-1.41 -1.38)"/><path class="cls-3" d="M29.39,92l-.17,0a.75.75,0,0,1-.51-.39L18.18,71.76l0,0-5.91-13a.76.76,0,0,1,.12-.82L26.06,42.06a.78.78,0,0,1,.85-.22L72.45,58.9a.77.77,0,0,1,.49.61.79.79,0,0,1-.3.73L29.85,91.88A.79.79,0,0,1,29.39,92Zm-9.84-21,10.1,19L70.58,59.84,26.88,43.47l-13,15.1Z" transform="translate(-1.41 -1.38)"/><polygon class="cls-2" points="90.95 91.88 81.41 94.52 70.77 58.24 86.31 73.58 90.95 91.88"/><polygon class="cls-3" points="90.95 91.88 81.41 94.52 70.77 58.24 86.31 73.58 90.95 91.88"/><path class="cls-5" d="M82.82,96.66a.77.77,0,0,1-.74-.55L71.44,59.83a.76.76,0,0,1,.34-.87.79.79,0,0,1,.94.11L88.25,74.41a.73.73,0,0,1,.21.36L93.1,93.08a.76.76,0,0,1-.54.93L83,96.64a.75.75,0,0,1-.21,0M73.75,62.25,83.35,95l8.08-2.23L87,75.35Z" transform="translate(-1.41 -1.38)"/><path class="cls-3" d="M82.82,96.66a.77.77,0,0,1-.74-.55L71.44,59.83a.76.76,0,0,1,.34-.87.79.79,0,0,1,.94.11L88.25,74.41a.73.73,0,0,1,.21.36L93.1,93.08a.76.76,0,0,1-.54.93L83,96.64A.75.75,0,0,1,82.82,96.66ZM73.75,62.25,83.35,95l8.08-2.23L87,75.35Z" transform="translate(-1.41 -1.38)"/><polygon class="cls-2" points="81.41 94.52 72.17 111.11 45.21 122.38 27.98 89.88 81.41 94.52"/><polygon class="cls-3" points="81.41 94.52 72.17 111.11 45.21 122.38 27.98 89.88 81.41 94.52"/><path class="cls-5" d="M46.62,124.53a.77.77,0,0,1-.68-.41L28.71,91.62a.75.75,0,0,1,0-.78.76.76,0,0,1,.71-.35l53.43,4.64a.77.77,0,0,1,.6,1.14l-9.24,16.59a.84.84,0,0,1-.38.34L46.92,124.47a.8.8,0,0,1-.3.06M30.73,92.15,47,122.78,73,111.88l8.54-15.32Z" transform="translate(-1.41 -1.38)"/><path class="cls-3" d="M46.62,124.53a.77.77,0,0,1-.68-.41L28.71,91.62a.75.75,0,0,1,0-.78.76.76,0,0,1,.71-.35l53.43,4.64a.77.77,0,0,1,.6,1.14l-9.24,16.59a.84.84,0,0,1-.38.34L46.92,124.47A.8.8,0,0,1,46.62,124.53ZM30.73,92.15,47,122.78,73,111.88l8.54-15.32Z" transform="translate(-1.41 -1.38)"/><polygon class="cls-2" points="58.16 130.41 37.12 147.08 45.21 122.38 58.16 130.41"/><polygon class="cls-3" points="58.16 130.41 37.12 147.08 45.21 122.38 58.16 130.41"/><path class="cls-5" d="M38.53,149.23a.79.79,0,0,1-.44-.14.78.78,0,0,1-.29-.87l8.09-24.7a.77.77,0,0,1,.47-.48.76.76,0,0,1,.67.07l12.95,8a.77.77,0,0,1,.36.61.79.79,0,0,1-.29.64L39,149.06a.78.78,0,0,1-.48.17m8.52-24.3-7,21.34,18.18-14.4Z" transform="translate(-1.41 -1.38)"/><path class="cls-3" d="M38.53,149.23a.79.79,0,0,1-.44-.14.78.78,0,0,1-.29-.87l8.09-24.7a.77.77,0,0,1,.47-.48.76.76,0,0,1,.67.07l12.95,8a.77.77,0,0,1,.36.61.79.79,0,0,1-.29.64L39,149.06A.78.78,0,0,1,38.53,149.23Zm8.52-24.3-7,21.34,18.18-14.4Z" transform="translate(-1.41 -1.38)"/><polygon class="cls-2" points="45.21 122.38 37.12 147.08 13.24 135.05 45.21 122.38"/><polygon class="cls-3" points="45.21 122.38 37.12 147.08 13.24 135.05 45.21 122.38"/><path class="cls-5" d="M38.53,149.23a.67.67,0,0,1-.34-.09l-23.88-12a.76.76,0,0,1,.06-1.4l32-12.67a.78.78,0,0,1,.81.15.79.79,0,0,1,.2.8l-8.09,24.7a.76.76,0,0,1-.73.53m-22-12.71,21.55,10.85,7.3-22.29Z" transform="translate(-1.41 -1.38)"/><path class="cls-3" d="M38.53,149.23a.67.67,0,0,1-.34-.09l-23.88-12a.76.76,0,0,1,.06-1.4l32-12.67a.78.78,0,0,1,.81.15.79.79,0,0,1,.2.8l-8.09,24.7a.76.76,0,0,1-.73.53Zm-22-12.71,21.55,10.85,7.3-22.29Z" transform="translate(-1.41 -1.38)"/><polygon class="cls-2" points="45.21 122.38 13.24 135.05 13.24 121.39 45.21 122.38"/><polygon class="cls-3" points="45.21 122.38 13.24 135.05 13.24 121.39 45.21 122.38"/><path class="cls-5" d="M14.65,137.2a.75.75,0,0,1-.43-.13.77.77,0,0,1-.34-.64V122.77a.77.77,0,0,1,.24-.55.82.82,0,0,1,.56-.22l32,1a.78.78,0,0,1,.74.64.76.76,0,0,1-.48.84l-32,12.68a.74.74,0,0,1-.29,0m.77-13.63V135.3l27.47-10.89Z" transform="translate(-1.41 -1.38)"/><path class="cls-3" d="M14.65,137.2a.75.75,0,0,1-.43-.13.77.77,0,0,1-.34-.64V122.77a.77.77,0,0,1,.24-.55.82.82,0,0,1,.56-.22l32,1a.78.78,0,0,1,.74.64.76.76,0,0,1-.48.84l-32,12.68A.74.74,0,0,1,14.65,137.2Zm.77-13.63V135.3l27.47-10.89Z" transform="translate(-1.41 -1.38)"/><polygon class="cls-2" points="27.98 89.88 13.24 121.39 1.25 115.93 1.54 108.41 13.01 107.25 1.25 91.61 27.98 89.88"/><polygon class="cls-3" points="27.98 89.88 13.24 121.39 1.25 115.93 1.54 108.41 13.01 107.25 1.25 91.61 27.98 89.88"/><path class="cls-5" d="M14.65,123.54a.77.77,0,0,1-.32-.07L2.34,118a.76.76,0,0,1-.44-.73l.28-7.52a.77.77,0,0,1,.69-.73L13,108,2.05,93.45a.77.77,0,0,1,.56-1.23l26.73-1.73a.78.78,0,0,1,.75,1.1L15.35,123.1a.77.77,0,0,1-.7.44m-11.2-6.72,10.83,4.94L28.14,92.11l-24,1.56L15,108.17a.76.76,0,0,1,.09.77.75.75,0,0,1-.63.45l-10.8,1.1Z" transform="translate(-1.41 -1.38)"/><path class="cls-3" d="M14.65,123.54a.77.77,0,0,1-.32-.07L2.34,118a.76.76,0,0,1-.44-.73l.28-7.52a.77.77,0,0,1,.69-.73L13,108,2.05,93.45a.77.77,0,0,1,.56-1.23l26.73-1.73a.78.78,0,0,1,.75,1.1L15.35,123.1A.77.77,0,0,1,14.65,123.54Zm-11.2-6.72,10.83,4.94L28.14,92.11l-24,1.56L15,108.17a.76.76,0,0,1,.09.77.75.75,0,0,1-.63.45l-10.8,1.1Z" transform="translate(-1.41 -1.38)"/><polygon class="cls-2" points="27.98 89.88 1.25 91.61 17.45 70.02 27.98 89.88"/><polygon class="cls-3" points="27.98 89.88 1.25 91.61 17.45 70.02 27.98 89.88"/><path class="cls-5" d="M2.66,93.76a.75.75,0,0,1-.67-.4.76.76,0,0,1,.06-.83l16.2-21.59a.74.74,0,0,1,.67-.3.77.77,0,0,1,.62.4L30.07,90.9a.76.76,0,0,1,0,.73.78.78,0,0,1-.62.4L2.71,93.76h0M18.75,72.83,4.28,92.12l23.87-1.55Z" transform="translate(-1.41 -1.38)"/><path class="cls-3" d="M2.66,93.76a.75.75,0,0,1-.67-.4.76.76,0,0,1,.06-.83l16.2-21.59a.74.74,0,0,1,.67-.3.77.77,0,0,1,.62.4L30.07,90.9a.76.76,0,0,1,0,.73.78.78,0,0,1-.62.4L2.71,93.76ZM18.75,72.83,4.28,92.12l23.87-1.55Z" transform="translate(-1.41 -1.38)"/><polygon class="cls-2" points="77.52 131.43 58.16 130.41 72.17 111.11 77.52 131.43"/><polygon class="cls-3" points="77.52 131.43 58.16 130.41 72.17 111.11 77.52 131.43"/><path class="cls-5" d="M78.93,133.58h0l-19.36-1a.79.79,0,0,1-.65-.44.76.76,0,0,1,.07-.78L73,112a.77.77,0,0,1,1.37.25l5.35,20.32a.75.75,0,0,1-.14.68.79.79,0,0,1-.6.29M61,131.1l16.9.88-4.68-17.73Z" transform="translate(-1.41 -1.38)"/><path class="cls-3" d="M78.93,133.58h0l-19.36-1a.79.79,0,0,1-.65-.44.76.76,0,0,1,.07-.78L73,112a.77.77,0,0,1,1.37.25l5.35,20.32a.75.75,0,0,1-.14.68A.79.79,0,0,1,78.93,133.58ZM61,131.1l16.9.88-4.68-17.73Z" transform="translate(-1.41 -1.38)"/><polygon class="cls-2" points="92.75 146.53 78.38 155.82 58.16 130.41 77.52 131.43 92.75 146.53"/><polygon class="cls-3" points="92.75 146.53 78.38 155.82 58.16 130.41 77.52 131.43 92.75 146.53"/><path class="cls-5" d="M79.79,158a.76.76,0,0,1-.6-.29L59,132.27a.77.77,0,0,1,.64-1.25L79,132a.77.77,0,0,1,.5.22l15.23,15.1a.82.82,0,0,1,.22.63.76.76,0,0,1-.35.57l-14.36,9.29a.81.81,0,0,1-.42.12M61.24,132.65,80,156.18l13-8.4L78.6,133.56Z" transform="translate(-1.41 -1.38)"/><path class="cls-3" d="M79.79,158a.76.76,0,0,1-.6-.29L59,132.27a.77.77,0,0,1,.64-1.25L79,132a.77.77,0,0,1,.5.22l15.23,15.1a.82.82,0,0,1,.22.63.76.76,0,0,1-.35.57l-14.36,9.29A.81.81,0,0,1,79.79,158ZM61.24,132.65,80,156.18l13-8.4L78.6,133.56Z" transform="translate(-1.41 -1.38)"/><polygon class="cls-2" points="70.19 11.26 25.24 41.18 19.58 13.27 46.36 1.25 70.19 11.26"/><polygon class="cls-3" points="70.19 11.26 25.24 41.18 19.58 13.27 46.36 1.25 70.19 11.26"/><path class="cls-5" d="M26.64,43.33a.75.75,0,0,1-.29-.06.74.74,0,0,1-.46-.55L20.24,14.81a.77.77,0,0,1,.44-.86l26.78-12a.72.72,0,0,1,.61,0l23.82,10a.77.77,0,0,1,.47.64.75.75,0,0,1-.34.71L27.07,43.2a.75.75,0,0,1-.43.13M21.87,15.1l5.3,26.19L70,12.79,47.78,3.47Z" transform="translate(-1.41 -1.38)"/><path class="cls-3" d="M26.64,43.33a.75.75,0,0,1-.29-.06.74.74,0,0,1-.46-.55L20.24,14.81a.77.77,0,0,1,.44-.86l26.78-12a.72.72,0,0,1,.61,0l23.82,10a.77.77,0,0,1,.47.64.75.75,0,0,1-.34.71L27.07,43.2A.75.75,0,0,1,26.64,43.33ZM21.87,15.1l5.3,26.19L70,12.79,47.78,3.47Z" transform="translate(-1.41 -1.38)"/><polygon class="cls-2" points="25.24 41.18 9.47 27.36 19.58 13.27 25.24 41.18"/><polygon class="cls-3" points="25.24 41.18 9.47 27.36 19.58 13.27 25.24 41.18"/><path class="cls-5" d="M26.64,43.33a.73.73,0,0,1-.5-.19L10.37,29.32a.77.77,0,0,1-.12-1L20.37,14.2a.78.78,0,0,1,.78-.3.77.77,0,0,1,.59.6L27.4,42.41a.8.8,0,0,1-.37.82.76.76,0,0,1-.39.1M11.91,28.62,25.44,40.48,20.59,16.53Z" transform="translate(-1.41 -1.38)"/><path class="cls-3" d="M26.64,43.33a.73.73,0,0,1-.5-.19L10.37,29.32a.77.77,0,0,1-.12-1L20.37,14.2a.78.78,0,0,1,.78-.3.77.77,0,0,1,.59.6L27.4,42.41a.8.8,0,0,1-.37.82A.76.76,0,0,1,26.64,43.33ZM11.91,28.62,25.44,40.48,20.59,16.53Z" transform="translate(-1.41 -1.38)"/><polygon class="cls-2" points="19.58 13.27 9.47 27.36 8.95 18.93 4.07 11.83 16.09 4.45 19.58 13.27"/><polygon class="cls-3" points="19.58 13.27 9.47 27.36 8.95 18.93 4.07 11.83 16.09 4.45 19.58 13.27"/><path class="cls-5" d="M10.88,29.51a.83.83,0,0,1-.22,0,.77.77,0,0,1-.55-.69L9.6,20.57,4.84,13.64a.77.77,0,0,1-.12-.59.75.75,0,0,1,.35-.5l12-7.37a.78.78,0,0,1,.65-.08.77.77,0,0,1,.47.45l3.5,8.82a.79.79,0,0,1-.09.73L11.5,29.19a.78.78,0,0,1-.62.32M6.56,13.44,11,19.88a.76.76,0,0,1,.13.39l.39,6.27,8.61-12L17.12,7Z" transform="translate(-1.41 -1.38)"/><path class="cls-3" d="M10.88,29.51a.83.83,0,0,1-.22,0,.77.77,0,0,1-.55-.69L9.6,20.57,4.84,13.64a.77.77,0,0,1-.12-.59.75.75,0,0,1,.35-.5l12-7.37a.78.78,0,0,1,.65-.08.77.77,0,0,1,.47.45l3.5,8.82a.79.79,0,0,1-.09.73L11.5,29.19A.78.78,0,0,1,10.88,29.51ZM6.56,13.44,11,19.88a.76.76,0,0,1,.13.39l.39,6.27,8.61-12L17.12,7Z" transform="translate(-1.41 -1.38)"/><polygon class="cls-2" points="66.74 26.64 78.93 37.51 70.77 58.24 66.74 26.64"/><polygon class="cls-3" points="66.74 26.64 78.93 37.51 70.77 58.24 66.74 26.64"/><path class="cls-5" d="M72.18,60.39h-.1a.76.76,0,0,1-.66-.66l-4-31.6a.77.77,0,0,1,.41-.78.76.76,0,0,1,.87.11L80.85,38.32a.75.75,0,0,1,.2.85L72.89,59.9a.76.76,0,0,1-.71.49M69.17,30l3.39,26.59,6.87-17.44Z" transform="translate(-1.41 -1.38)"/><path class="cls-3" d="M72.18,60.39h-.1a.76.76,0,0,1-.66-.66l-4-31.6a.77.77,0,0,1,.41-.78.76.76,0,0,1,.87.11L80.85,38.32a.75.75,0,0,1,.2.85L72.89,59.9A.76.76,0,0,1,72.18,60.39ZM69.17,30l3.39,26.59,6.87-17.44Z" transform="translate(-1.41 -1.38)"/><polygon class="cls-2" points="92.75 38.06 83.85 44.61 78.93 37.51 92.75 38.06"/><polygon class="cls-3" points="92.75 38.06 83.85 44.61 78.93 37.51 92.75 38.06"/><path class="cls-5" d="M85.26,46.76h-.13a.76.76,0,0,1-.51-.32l-4.92-7.1a.77.77,0,0,1,.67-1.21l13.82.55a.77.77,0,0,1,.7.54.78.78,0,0,1-.28.85l-8.9,6.55a.74.74,0,0,1-.45.15m-3.41-7,3.59,5.19,6.49-4.79Z" transform="translate(-1.41 -1.38)"/><path class="cls-3" d="M85.26,46.76h-.13a.76.76,0,0,1-.51-.32l-4.92-7.1a.77.77,0,0,1,.67-1.21l13.82.55a.77.77,0,0,1,.7.54.78.78,0,0,1-.28.85l-8.9,6.55A.74.74,0,0,1,85.26,46.76Zm-3.41-7,3.59,5.19,6.49-4.79Z" transform="translate(-1.41 -1.38)"/><polygon class="cls-2" points="92.75 38.06 66.74 26.64 86.31 8 92.75 38.06"/><polygon class="cls-3" points="92.75 38.06 66.74 26.64 86.31 8 92.75 38.06"/><path class="cls-5" d="M94.16,40.21a.82.82,0,0,1-.31-.07l-26-11.42a.73.73,0,0,1-.45-.57.77.77,0,0,1,.22-.69L87.18,8.82a.78.78,0,0,1,1.29.4l6.44,30.06a.77.77,0,0,1-.27.75.74.74,0,0,1-.48.18M69.51,27.78,93.09,38.13,87.25,10.88Z" transform="translate(-1.41 -1.38)"/><path class="cls-3" d="M94.16,40.21a.82.82,0,0,1-.31-.07l-26-11.42a.73.73,0,0,1-.45-.57.77.77,0,0,1,.22-.69L87.18,8.82a.78.78,0,0,1,1.29.4l6.44,30.06a.77.77,0,0,1-.27.75A.74.74,0,0,1,94.16,40.21ZM69.51,27.78,93.09,38.13,87.25,10.88Z" transform="translate(-1.41 -1.38)"/><polygon class="cls-2" points="70.77 58.24 25.24 41.18 66.74 26.64 70.77 58.24"/><polygon class="cls-3" points="70.77 58.24 25.24 41.18 66.74 26.64 70.77 58.24"/><path class="cls-5" d="M72.18,60.39a.86.86,0,0,1-.27,0L26.37,43.28a.77.77,0,0,1,0-1.44l41.5-14.55a.77.77,0,0,1,.66.08.75.75,0,0,1,.36.55l4,31.6a.77.77,0,0,1-.76.87M28.9,42.59,71.25,58.45,67.5,29.06Z" transform="translate(-1.41 -1.38)"/><path class="cls-3" d="M72.18,60.39a.86.86,0,0,1-.27,0L26.37,43.28a.77.77,0,0,1,0-1.44l41.5-14.55a.77.77,0,0,1,.66.08.75.75,0,0,1,.36.55l4,31.6a.77.77,0,0,1-.76.87ZM28.9,42.59,71.25,58.45,67.5,29.06Z" transform="translate(-1.41 -1.38)"/><polygon class="cls-2" points="92.75 38.06 78.93 37.51 66.74 26.64 92.75 38.06"/><polygon class="cls-3" points="92.75 38.06 78.93 37.51 66.74 26.64 92.75 38.06"/><path class="cls-5" d="M94.16,40.21h0l-13.81-.54a.77.77,0,0,1-.48-.2L67.63,28.59a.77.77,0,0,1,.82-1.27l26,11.41a.77.77,0,0,1-.3,1.48M80.64,38.13l9.49.38L72.27,30.67Z" transform="translate(-1.41 -1.38)"/><path class="cls-3" d="M94.16,40.21h0l-13.81-.54a.77.77,0,0,1-.48-.2L67.63,28.59a.77.77,0,0,1,.82-1.27l26,11.41a.77.77,0,0,1-.3,1.48ZM80.64,38.13l9.49.38L72.27,30.67Z" transform="translate(-1.41 -1.38)"/><polygon class="cls-2" points="70.19 11.26 66.74 26.64 25.24 41.18 70.19 11.26"/><polygon class="cls-3" points="70.19 11.26 66.74 26.64 25.24 41.18 70.19 11.26"/><path class="cls-5" d="M26.64,43.33a.77.77,0,0,1-.42-1.41L71.17,12A.77.77,0,0,1,72,12a.75.75,0,0,1,.31.8L68.89,28.19a.72.72,0,0,1-.49.55L26.9,43.29a.78.78,0,0,1-.26,0m43.78-29L32.16,39.82,67.49,27.44Z" transform="translate(-1.41 -1.38)"/><path class="cls-3" d="M26.64,43.33a.77.77,0,0,1-.42-1.41L71.17,12A.77.77,0,0,1,72,12a.75.75,0,0,1,.31.8L68.89,28.19a.72.72,0,0,1-.49.55L26.9,43.29A.78.78,0,0,1,26.64,43.33Zm43.78-29L32.16,39.82,67.49,27.44Z" transform="translate(-1.41 -1.38)"/><polygon class="cls-2" points="86.31 8 66.74 26.64 70.19 11.26 86.31 8"/><polygon class="cls-3" points="86.31 8 66.74 26.64 70.19 11.26 86.31 8"/><path class="cls-5" d="M68.14,28.79a.71.71,0,0,1-.37-.1.78.78,0,0,1-.38-.84l3.45-15.38a.77.77,0,0,1,.6-.58L87.56,8.63a.77.77,0,0,1,.84.4.78.78,0,0,1-.16.91L68.67,28.58a.74.74,0,0,1-.53.21m4.1-15.5L69.45,25.72,85.26,10.66Z" transform="translate(-1.41 -1.38)"/><path class="cls-3" d="M68.14,28.79a.71.71,0,0,1-.37-.1.78.78,0,0,1-.38-.84l3.45-15.38a.77.77,0,0,1,.6-.58L87.56,8.63a.77.77,0,0,1,.84.4.78.78,0,0,1-.16.91L68.67,28.58A.74.74,0,0,1,68.14,28.79Zm4.1-15.5L69.45,25.72,85.26,10.66Z" transform="translate(-1.41 -1.38)"/><polygon class="cls-2" points="81.47 94.43 28.02 89.96 70.71 58.19 81.47 94.43"/><polygon class="cls-3" points="81.47 94.43 28.02 89.96 70.71 58.19 81.47 94.43"/><path class="cls-5" d="M82.88,96.58h-.07L29.37,92.11a.79.79,0,0,1-.68-.55.79.79,0,0,1,.28-.83L71.66,59a.76.76,0,0,1,.7-.11.77.77,0,0,1,.5.51L83.62,95.59a.79.79,0,0,1-.15.71.74.74,0,0,1-.59.28M31.52,90.75,81.82,95,71.7,60.84Z" transform="translate(-1.41 -1.38)"/><path class="cls-3" d="M82.88,96.58h-.07L29.37,92.11a.79.79,0,0,1-.68-.55.79.79,0,0,1,.28-.83L71.66,59a.76.76,0,0,1,.7-.11.77.77,0,0,1,.5.51L83.62,95.59a.79.79,0,0,1-.15.71A.74.74,0,0,1,82.88,96.58ZM31.52,90.75,81.82,95,71.7,60.84Z" transform="translate(-1.41 -1.38)"/><polygon class="cls-2" points="72.17 111.11 58.16 130.41 45.21 122.38 72.17 111.11"/><polygon class="cls-3" points="72.17 111.11 58.16 130.41 45.21 122.38 72.17 111.11"/><path class="cls-5" d="M59.57,132.56a.72.72,0,0,1-.4-.12l-13-8a.77.77,0,0,1-.36-.71.79.79,0,0,1,.47-.65l27-11.27a.77.77,0,0,1,.92,1.16l-14,19.3a.75.75,0,0,1-.62.32m-11.28-8.67,11.08,6.87,12-16.5Z" transform="translate(-1.41 -1.38)"/><path class="cls-3" d="M59.57,132.56a.72.72,0,0,1-.4-.12l-13-8a.77.77,0,0,1-.36-.71.79.79,0,0,1,.47-.65l27-11.27a.77.77,0,0,1,.92,1.16l-14,19.3A.75.75,0,0,1,59.57,132.56Zm-11.28-8.67,11.08,6.87,12-16.5Z" transform="translate(-1.41 -1.38)"/><polygon class="cls-2" points="45.21 122.38 13.24 121.39 27.98 89.88 45.21 122.38"/><polygon class="cls-3" points="45.21 122.38 13.24 121.39 27.98 89.88 45.21 122.38"/><path class="cls-5" d="M46.62,124.53h0l-32-1a.76.76,0,0,1-.67-1.09L28.69,90.93a.79.79,0,0,1,.68-.44.77.77,0,0,1,.7.41L47.3,123.4a.76.76,0,0,1,0,.77.78.78,0,0,1-.65.36M15.84,122l29.48.91L29.43,93Z" transform="translate(-1.41 -1.38)"/><path class="cls-3" d="M46.62,124.53h0l-32-1a.76.76,0,0,1-.67-1.09L28.69,90.93a.79.79,0,0,1,.68-.44.77.77,0,0,1,.7.41L47.3,123.4a.76.76,0,0,1,0,.77A.78.78,0,0,1,46.62,124.53ZM15.84,122l29.48.91L29.43,93Z" transform="translate(-1.41 -1.38)"/></g></g></g></svg>