<svg xmlns="http://www.w3.org/2000/svg" xmlns:xlink="http://www.w3.org/1999/xlink" viewBox="0 0 145.82 586.77"><defs><style>.cls-1{fill:none;}.cls-2{clip-path:url(#clip-path);}.cls-3,.cls-4{fill:#fff;}.cls-4{fill-rule:evenodd;}.cls-5{clip-path:url(#clip-path-2);}</style><clipPath id="clip-path"><rect class="cls-1" x="85.88" y="226.57" width="59.95" height="63.43"/></clipPath><clipPath id="clip-path-2"><rect class="cls-1" y="218.12" width="59.95" height="77.03"/></clipPath></defs><title>socialmedia</title><g id="Layer_2" data-name="Layer 2"><g id="Layer_1-2" data-name="Layer 1"><g class="cls-2"><path class="cls-3" d="M115.85,226.57a30,30,0,1,1-21.19,8.77,29.87,29.87,0,0,1,21.19-8.77M135.4,237a27.68,27.68,0,1,0,8.08,19.54A27.61,27.61,0,0,0,135.4,237"/><path class="cls-3" d="M115.85,376.68a30,30,0,1,1-21.19,8.78,29.82,29.82,0,0,1,21.19-8.78m19.55,10.44a27.67,27.67,0,1,0,8.08,19.53,27.58,27.58,0,0,0-8.08-19.53"/><path class="cls-3" d="M115.85,452.34a30,30,0,1,1-21.19,8.78,29.83,29.83,0,0,1,21.19-8.78m19.54,10.44a27.64,27.64,0,1,0,8.09,19.53,27.54,27.54,0,0,0-8.09-19.53"/><path class="cls-3" d="M115.85,301a30,30,0,1,1-21.19,8.78A29.92,29.92,0,0,1,115.85,301m19.55,10.44A27.68,27.68,0,1,0,143.48,331a27.6,27.6,0,0,0-8.08-19.55"/><path class="cls-3" d="M115.85,526.81a30,30,0,1,1-21.19,8.78,29.92,29.92,0,0,1,21.19-8.78m19.54,10.44a27.64,27.64,0,1,0,8.09,19.55,27.53,27.53,0,0,0-8.09-19.55"/><path class="cls-4" d="M118.14,250.41V248a1.29,1.29,0,0,1,1.35-1.46h3.43v-5.25h-4.73c-5.26,0-6.44,3.89-6.44,6.41v2.75h-3v6.13h3.09v15.3h6.12v-15.3h4.53l.2-2.41.36-3.72Z"/><path class="cls-4" d="M118.9,480.22c-2.2,0-4.41,0-6.62,0-.63,0-1.28,0-1.89,0-.13,0-.33.15-.33.24,0,1.28,0,2.55,0,3.88h5.39a2.1,2.1,0,0,1-.18.65c-.81,2.45-3.35,3.67-6.09,3.22a5.94,5.94,0,0,1-4.86-7.07,6.28,6.28,0,0,1,.4-1.38,6,6,0,0,1,6.64-3.34,5.51,5.51,0,0,1,2.53,1.32l3-3a2.4,2.4,0,0,1-.24-.22,9.69,9.69,0,0,0-8.2-2.24,10,10,0,0,0-8.3,8.26,9.94,9.94,0,0,0,.5,5.36,10.22,10.22,0,0,0,10.67,6.43,9.09,9.09,0,0,0,5.86-2.74,10.36,10.36,0,0,0,2.57-8.78c-.07-.55-.28-.65-.8-.65m10,.32h-.66v-.6c0-.85,0-1.69,0-2.56,0-.13-.17-.38-.23-.38-.77,0-1.55,0-2.36,0v3.53h-3.57v.65c0,.63,0,1.28.1,1.91.62,0,1.23.07,1.88.07h1.61v3.48c.88,0,1.69,0,2.57,0v-3.48h3.48v-2.59Z"/><path class="cls-4" d="M130.86,550.41a7.11,7.11,0,0,0-1.23-3.17,4.36,4.36,0,0,0-3-1.36c-4.28-.32-10.7-.32-10.7-.32h0s-6.4,0-10.69.32a4.34,4.34,0,0,0-3.06,1.36,7.11,7.11,0,0,0-1.23,3.17,48.17,48.17,0,0,0-.32,5.14V558a47.49,47.49,0,0,0,.32,5.15,7.21,7.21,0,0,0,1.23,3.18,5,5,0,0,0,3.38,1.36c2.44.25,10.41.34,10.41.34s6.42,0,10.7-.34a4.28,4.28,0,0,0,3-1.36,7.21,7.21,0,0,0,1.23-3.18,50.61,50.61,0,0,0,.3-5.15v-2.44a51.33,51.33,0,0,0-.3-5.14m-9.89,6-8.28,4.46v-9l3.75,2Z"/><path class="cls-4" d="M130.85,338.54v0h0v0a3,3,0,0,0-1-.35h0a8.35,8.35,0,0,1-4-2.92,10.17,10.17,0,0,1-1.4-2.39,1.17,1.17,0,0,1,.05-1h0a2.9,2.9,0,0,1,1.36-.9,5.28,5.28,0,0,0,1.86-.94.78.78,0,0,0,.28-.35.43.43,0,0,1,0-.13.81.81,0,0,0,0-.5,1.55,1.55,0,0,0-.63-.62,1.5,1.5,0,0,0-1.13-.1,4,4,0,0,1-1,.29s0,0,0,0a2.8,2.8,0,0,1-1.13,0,.87.87,0,0,0,0-.25c0-.67.05-1.36.05-2.11a20.9,20.9,0,0,0-.07-3.35v0a7.58,7.58,0,0,0-3.15-4.66,7.85,7.85,0,0,0-3.87-1.34,12.81,12.81,0,0,0-1.39-.09,8.66,8.66,0,0,0-5.24,1.7,8.2,8.2,0,0,0-2.58,3.33v0a9.21,9.21,0,0,0-.39,4.08c0,.91.11,1.81,0,2.69,0,0,0,0,0,.05a3.87,3.87,0,0,1-1.31,0h0c-.31-.05-.61-.19-1-.29h0a1.08,1.08,0,0,0-1,.22h0v0a1,1,0,0,0-.56.83s0,0,0,.06h0a1,1,0,0,0,.33.55,1.36,1.36,0,0,0,.35.25v0a12.38,12.38,0,0,0,2.07.9,1.42,1.42,0,0,1,.93.89,2.31,2.31,0,0,1-.36,1.58,9.58,9.58,0,0,1-3.16,3.62,8.17,8.17,0,0,1-2.3,1h0c-.18.08-.6.11-.83.49a.14.14,0,0,0,0,.1.69.69,0,0,0,.13.63,1,1,0,0,0,.37.29,7.9,7.9,0,0,0,2.14.74c.51.14,1,.18,1.34.33a3.86,3.86,0,0,1,.15.37c.14.38.19.85.34,1.31a.36.36,0,0,0,.28.25.78.78,0,0,0,.51,0,0,0,0,0,0,0,0,8.63,8.63,0,0,1,3.38-.1,12.73,12.73,0,0,1,3.19,1.71,5,5,0,0,0,2.52.93,15.51,15.51,0,0,0,2.16,0,4,4,0,0,0,1.69-.57l0,0c1.14-.63,2.14-1.43,3.27-1.92a5.65,5.65,0,0,1,1.32-.15,18.44,18.44,0,0,1,2.78.15h.09a.52.52,0,0,0,.32-.17c.07-.08.07-.17.1-.22s0-.11,0-.05,0,0,0-.06a3.91,3.91,0,0,1,.51-1.36.78.78,0,0,1,.58-.18h.07a11.36,11.36,0,0,0,2.19-.62s0,0,0,0a1.84,1.84,0,0,0,.86-.58h0a.61.61,0,0,0-.17-.9"/><path class="cls-4" d="M108.17,406.65a7.68,7.68,0,1,1,7.67,7.69,7.69,7.69,0,0,1-7.67-7.69m15.61-15H107.93a7.13,7.13,0,0,0-7.11,7.11v15.84a7.14,7.14,0,0,0,7.11,7.11h15.85a7.13,7.13,0,0,0,7.1-7.11V398.74a7.12,7.12,0,0,0-7.1-7.11m-15.85,1.78h15.85a5.33,5.33,0,0,1,5.32,5.33v15.84a5.33,5.33,0,0,1-5.32,5.33H107.93a5.33,5.33,0,0,1-5.33-5.33V398.74a5.33,5.33,0,0,1,5.33-5.33m17.42,2.24a1.56,1.56,0,1,0,1.56,1.56,1.56,1.56,0,0,0-1.56-1.56m.18,11a9.69,9.69,0,1,0-9.69,9.69,9.69,9.69,0,0,0,9.69-9.69"/></g><g class="cls-5"><path class="cls-3" d="M30,0A30,30,0,1,1,8.78,8.78,29.87,29.87,0,0,1,30,0M49.52,10.44A27.64,27.64,0,1,0,57.61,30a27.58,27.58,0,0,0-8.09-19.53"/><path class="cls-3" d="M30,150.11a30,30,0,1,1-21.19,8.78A29.84,29.84,0,0,1,30,150.11m19.55,10.44a27.65,27.65,0,1,0,8.09,19.53,27.62,27.62,0,0,0-8.09-19.53"/><path class="cls-3" d="M30,225.77a30,30,0,1,1-21.19,8.78A29.92,29.92,0,0,1,30,225.77m19.54,10.44a27.65,27.65,0,1,0,8.09,19.54,27.58,27.58,0,0,0-8.09-19.54"/><path class="cls-3" d="M30,74.47A30,30,0,1,1,8.78,83.25,30,30,0,0,1,30,74.47M49.52,84.91a27.64,27.64,0,1,0,8.09,19.55,27.57,27.57,0,0,0-8.09-19.55"/><path class="cls-3" d="M30,300.24A30,30,0,1,1,8.78,309,30,30,0,0,1,30,300.24m19.54,10.44a27.64,27.64,0,1,0,8.09,19.55,27.52,27.52,0,0,0-8.09-19.55"/><path class="cls-4" d="M32.26,23.85V21.39a1.29,1.29,0,0,1,1.35-1.46H37V14.69H32.31c-5.26,0-6.44,3.88-6.44,6.4v2.76H22.82V30h3.09v15.3H32V30h4.53l.2-2.4.37-3.72Z"/><path class="cls-4" d="M33,253.66c-2.2,0-4.41,0-6.62,0-.63,0-1.27,0-1.89,0-.13,0-.33.15-.33.23,0,1.28,0,2.56,0,3.88h5.4a2.4,2.4,0,0,1-.19.65c-.81,2.46-3.35,3.67-6.09,3.22a5.93,5.93,0,0,1-4.86-7.07,6.44,6.44,0,0,1,.4-1.38,6,6,0,0,1,6.64-3.33A5.43,5.43,0,0,1,28,251.2l3-3a1,1,0,0,1-.25-.22,9.72,9.72,0,0,0-8.2-2.24,10.19,10.19,0,0,0-7.8,13.63,10.2,10.2,0,0,0,10.67,6.42,9,9,0,0,0,5.86-2.74,10.35,10.35,0,0,0,2.57-8.78c-.07-.54-.28-.64-.8-.64m10,.31H42.4v-.6c0-.84,0-1.69,0-2.55,0-.13-.16-.38-.23-.38-.76,0-1.54,0-2.36,0v3.54H36.24v.65c0,.63.06,1.27.1,1.9.62,0,1.23.07,1.88.07s1,0,1.61,0v3.49c.88,0,1.69,0,2.57,0v-3.49h3.49V254Z"/><path class="cls-4" d="M45,323.84a7.18,7.18,0,0,0-1.22-3.17,4.38,4.38,0,0,0-3.06-1.36C36.42,319,30,319,30,319h0s-6.4,0-10.68.31a4.34,4.34,0,0,0-3.07,1.36A7.11,7.11,0,0,0,15,323.84a48.23,48.23,0,0,0-.32,5.15v2.44a47.19,47.19,0,0,0,.32,5.14,7.24,7.24,0,0,0,1.23,3.19,5,5,0,0,0,3.38,1.36c2.44.25,10.41.33,10.41.33s6.42,0,10.7-.33a4.29,4.29,0,0,0,3.06-1.36A7.31,7.31,0,0,0,45,336.57a50.29,50.29,0,0,0,.3-5.14V329a51.4,51.4,0,0,0-.3-5.15m-9.89,6-8.28,4.47v-9l3.75,2.05Z"/><path class="cls-4" d="M45,112v0h0v0a3,3,0,0,0-1-.35h0a8.2,8.2,0,0,1-4-2.92,10.11,10.11,0,0,1-1.4-2.39,1.17,1.17,0,0,1,.05-1h0a2.89,2.89,0,0,1,1.36-.89,5.3,5.3,0,0,0,1.86-1,.73.73,0,0,0,.28-.35.55.55,0,0,1,0-.13.82.82,0,0,0,0-.5,1.46,1.46,0,0,0-.63-.61,1.5,1.5,0,0,0-1.13-.1,4.4,4.4,0,0,1-1,.28s0,0,0,0a2.74,2.74,0,0,1-1.12,0,.66.66,0,0,0,0-.25c0-.66,0-1.36,0-2.11a19.81,19.81,0,0,0-.06-3.35v0a7.69,7.69,0,0,0-3.16-4.67,7.85,7.85,0,0,0-3.86-1.34,13.14,13.14,0,0,0-1.4-.08,8.59,8.59,0,0,0-5.24,1.69A8.05,8.05,0,0,0,22,95.2h0a9.08,9.08,0,0,0-.4,4.08c0,.92.11,1.81.05,2.69,0,0,0,0,0,0a3.87,3.87,0,0,1-1.31,0h0c-.32,0-.62-.18-1-.28h0a1.1,1.1,0,0,0-1,.21h0v0a1,1,0,0,0-.56.83.17.17,0,0,0,0,.07h0a.93.93,0,0,0,.33.54,1.36,1.36,0,0,0,.35.25v0a12,12,0,0,0,2.08.89,1.42,1.42,0,0,1,.92.9,2.27,2.27,0,0,1-.36,1.58,9.6,9.6,0,0,1-3.15,3.61,7.7,7.7,0,0,1-2.31,1h0a1.39,1.39,0,0,0-.83.5.15.15,0,0,0-.05.1.69.69,0,0,0,.14.63,1.07,1.07,0,0,0,.36.28,8.29,8.29,0,0,0,2.14.75,11.64,11.64,0,0,1,1.35.33l.15.36c.13.38.18.85.33,1.31a.38.38,0,0,0,.28.25.71.71,0,0,0,.51,0,0,0,0,0,0,0,0,8.87,8.87,0,0,1,3.39-.1,13.19,13.19,0,0,1,3.18,1.71,4.94,4.94,0,0,0,2.53.93,15.37,15.37,0,0,0,2.15,0,4,4,0,0,0,1.7-.56l0,0c1.14-.64,2.14-1.43,3.27-1.93a5.67,5.67,0,0,1,1.33-.15,18.3,18.3,0,0,1,2.77.15h.1a.52.52,0,0,0,.31-.17.77.77,0,0,0,.1-.21c0-.07,0-.12,0-.05s0,0,0-.07a3.79,3.79,0,0,1,.52-1.36.79.79,0,0,1,.58-.18h.06a11.35,11.35,0,0,0,2.19-.61s0,0,0,0a1.84,1.84,0,0,0,.86-.58h0A.62.62,0,0,0,45,112"/><path class="cls-4" d="M22.3,180.09A7.68,7.68,0,1,1,30,187.77a7.68,7.68,0,0,1-7.66-7.68m15.6-15H22.05a7.12,7.12,0,0,0-7.11,7.1V188a7.14,7.14,0,0,0,7.11,7.1H37.9A7.12,7.12,0,0,0,45,188V172.17a7.11,7.11,0,0,0-7.1-7.1m-15.85,1.77H37.9a5.33,5.33,0,0,1,5.33,5.33V188a5.33,5.33,0,0,1-5.33,5.33H22.05A5.33,5.33,0,0,1,16.72,188V172.17a5.33,5.33,0,0,1,5.33-5.33m17.42,2.24A1.56,1.56,0,1,0,41,170.64a1.56,1.56,0,0,0-1.56-1.56m.19,11a9.7,9.7,0,1,0-9.7,9.69,9.7,9.7,0,0,0,9.7-9.69"/></g></g></g></svg>