<svg xmlns="http://www.w3.org/2000/svg" viewBox="0 0 285.74 246.25"><defs><style>.cls-1{fill:none;stroke:#ddd;stroke-linecap:round;stroke-linejoin:round;stroke-width:3px;}</style></defs><title>Asset 2</title><g id="Layer_2" data-name="Layer 2"><g id="Layer_1-2" data-name="Layer 1"><polygon class="cls-1" points="131.45 16.23 153.57 6.11 172.73 14.61 136.71 38.77 131.45 16.23"/><polygon class="cls-1" points="250.58 7.67 277.09 6.1 263.05 35.89 251.06 30.69 251.37 22.8 261.15 21.86 250.58 7.67"/><polygon class="cls-1" points="10.19 129.58 35.57 130.68 21.49 101.94 10.19 129.58"/><polygon class="cls-1" points="130.12 118.02 170.38 103.61 174.3 134.69 130.12 118.02"/><polygon class="cls-1" points="284.24 108.95 276.75 123.01 256.22 131.84 241.89 105.68 284.24 108.95"/><polygon class="cls-1" points="10.47 13.2 1.5 40.48 24.28 23.06 44.5 24.29 38.52 1.5 23.84 21.21 10.47 13.2"/><polygon class="cls-1" points="275.7 196.41 283.18 215.04 261.32 244.75 259.94 226.5 248.91 211.55 275.7 196.41"/><polygon class="cls-1" points="2.11 204.38 29.34 241.87 49.76 228.56 30.19 205.59 2.11 204.38"/></g></g></svg>