<svg xmlns="http://www.w3.org/2000/svg" viewBox="0 0 253.91 212.71"><defs><style>.cls-1{font-size:10.89px;fill:#fff;font-family:RobotoMono-Regular, Roboto Mono;}.cls-2{fill:none;stroke:#fff;stroke-linecap:round;stroke-linejoin:round;stroke-width:3px;}</style></defs><title>Buttons</title><g id="Layer_2" data-name="Layer 2"><g id="Layer_1-2" data-name="Layer 1"><text class="cls-1" transform="translate(5.61 52.74)">Stadt</text><text class="cls-1" transform="translate(5.67 126.38)">Natur</text><text class="cls-1" transform="translate(0 209.76)">Freizeit</text><text class="cls-1" transform="translate(104.15 52.75)">Bürger</text><text class="cls-1" transform="translate(104.15 126.71)">Kultur</text><text class="cls-1" transform="translate(198.38 52.75)">Bildung</text><text class="cls-1" transform="translate(191.85 126.71)">Tourismus</text><text class="cls-1" transform="translate(188.59 209.76)">Innovation</text><polygon class="cls-2" points="107.11 13.06 124.47 5.11 139.5 11.79 111.23 30.74 107.11 13.06"/><polygon class="cls-2" points="211.48 6.34 232.28 5.11 221.26 28.48 211.85 24.4 212.1 18.22 219.78 17.48 211.48 6.34"/><polygon class="cls-2" points="11.95 102.01 31.87 102.87 20.82 80.31 11.95 102.01"/><polygon class="cls-2" points="106.06 92.94 137.66 81.63 140.73 106.02 106.06 92.94"/><polygon class="cls-2" points="237.89 85.82 232.01 96.86 215.91 103.79 204.66 83.25 237.89 85.82"/><polygon class="cls-2" points="12.17 10.68 5.13 32.09 23.01 18.42 38.88 19.39 34.19 1.5 22.66 16.97 12.17 10.68"/><polygon class="cls-2" points="231.19 154.45 237.06 169.08 219.91 192.38 218.83 178.06 210.17 166.33 231.19 154.45"/><polygon class="cls-2" points="5.61 160.71 26.98 190.13 43.01 179.69 27.65 161.66 5.61 160.71"/></g></g></svg>